<svg xmlns="http://www.w3.org/2000/svg" viewBox="0 0 17 17"><defs><style>.cls-1{fill:#fff;stroke:#e0e0e0;stroke-linejoin:round;}.cls-2{fill:#ccc;}</style></defs><title>资源 12</title><g id="图层_2" data-name="图层 2"><g id="_" data-name=" "><circle id="椭圆_2" data-name="椭圆 2" class="cls-1" cx="8.5" cy="8.5" r="8"/><path id="形状_1" data-name="形状 1" class="cls-2" d="M9.28,13.17H7.4V11.36H9.28Zm1.8-5.31a4.81,4.81,0,0,1-.92.87l-.44.35a1.37,1.37,0,0,0-.48.66,3,3,0,0,0-.09.75H7.43A5.5,5.5,0,0,1,7.63,9a2.8,2.8,0,0,1,.85-.94l.46-.36a1.59,1.59,0,0,0,.37-.37,1.23,1.23,0,0,0,.25-.76,1.44,1.44,0,0,0-.28-.87,1.18,1.18,0,0,0-1-.39,1.13,1.13,0,0,0-1,.48,1.87,1.87,0,0,0-.31,1H5.1A2.94,2.94,0,0,1,6.35,4.27a3.33,3.33,0,0,1,1.83-.48,3.91,3.91,0,0,1,2.36.68,2.33,2.33,0,0,1,.95,2,2.29,2.29,0,0,1-.41,1.38Z"/></g></g></svg>