<?xml version="1.0" encoding="utf-8"?>
<!-- Generator: Adobe Illustrator 21.0.0, SVG Export Plug-In . SVG Version: 6.00 Build 0)  -->
<svg version="1.1" id="图层_1" xmlns="http://www.w3.org/2000/svg" xmlns:xlink="http://www.w3.org/1999/xlink" x="0px" y="0px"
	 viewBox="0 0 180.7 211.5" style="enable-background:new 0 0 180.7 211.5;" xml:space="preserve">
<style type="text/css">
	.st0{fill:#03A930;}
</style>
<title>资源 02</title>
<g id="图层_2">
	<g id="图层_1-2">
		<path class="st0" d="M180.2,127.5c0,17.8-7.7,25.7-17.1,33.3c-21,16.9-42.8,32.8-65.4,47.5c-6.8,4.5-13,4.2-16.6-1.1
			c-3.9-5.7-2.2-12.7,4.2-17.2c18.2-12.9,51.6-35.8,59-42.1c8.2-7.1,13.7-12.2,13.7-22.2c0.2-30-0.2-91.5-0.6-93.4
			c-6.3,3.4-12.1,6.8-18.2,9.5c-3.2,1.5-6.8,2.2-10.4,1.9c-5.3-0.7-8.9-5.7-9.3-11c-0.3-4.5,2.7-9.5,7.1-11.7
			c10.6-5.5,21.3-11,31.9-16.5c11.3-5.9,21.1-7.5,21.7,6.1C181,28.3,180.9,115.8,180.2,127.5z"/>
		<path class="st0" d="M0,59.7c0.1-15.2,0-30.3,0.1-45.5C0.1,2.4,8.4-2.7,18.8,2.8C30,8.6,41.1,14.6,52.2,20.6
			c7.6,4.1,9.9,11.2,5.9,17.9c-3.9,6.4-11.2,7.4-18.3,3.1c-5.6-3.5-11.6-6.4-18.3-10.1c-0.1,2.7-0.6,63.7-0.5,92.5
			c0,15.9,11.1,26.8,27.2,26.8c11.5,0,23,0.1,34.5,0c4.8,0,8.6,1.7,10.5,6.1c2,4.4,1.2,9.5-2,13.1c-1,1.3-2.5,2.1-4.1,2.2
			c-16.4,0.1-32.7,0.7-48.8-1C18.5,169,1,152.3,0.4,132.8C0.2,127.2,0,61.6,0,59.7z"/>
		<path class="st0" d="M60.5,93.1c0-7.8,0-15.7,0-23.5c0-7,3.8-10.7,10.8-10.8c8.8-0.2,17.5,0.2,26.3,1.1
			c12.1,1.4,24.1,9.5,24.1,33.5c0,26-19.6,34.1-34.9,34.6c-5.2,0.2-10.3,0.2-15.5,0c-7.1-0.2-10.7-4-10.7-11
			C60.4,109.1,60.5,101.1,60.5,93.1z M106.3,94.3c0.9-27.1-25.2-23.1-28.1-22.2c-2.3,0.7-4,3.1-4,4.7c0.2,12,0.1,22,0,33.5
			c0.2,1.8,1.5,3.4,3.2,3.9C80.7,115.3,105.5,117.9,106.3,94.3z"/>
	</g>
</g>
</svg>
