<svg xmlns="http://www.w3.org/2000/svg" viewBox="0 0 848.99 210.99"><defs><style>.cls-1,.cls-2{fill:#42b979;}.cls-2{opacity:0.5;}.cls-3{fill:#24b56c;}</style></defs><title>资源 2</title><g id="图层_2" data-name="图层 2"><g id="图层_1-2" data-name="图层 1"><g id="_编组_" data-name="&lt;编组&gt;"><path id="_路径_" data-name="&lt;路径&gt;" class="cls-1" d="M89.49,172.39c3.57-1.85,6-6.82,6-11.09a11.11,11.11,0,0,0-11.11-11.1H47.2a24.93,24.93,0,0,1-24.85-23.93V31.63L39.62,40.8a12.51,12.51,0,0,0,4.72,2.89,12.57,12.57,0,0,0,11-22.39l-2.08-1.1L22.35,3.76,16.88.87a.8.8,0,0,0,0,.12A11.72,11.72,0,0,0,.55,9.92L.28,9.84V65A44.35,44.35,0,0,0,0,69.6v55.62c0,1.41.16,2.78.28,4.16A47.3,47.3,0,0,0,47.2,172.42H84.39Z"/><path id="_路径_2" data-name="&lt;路径&gt;" class="cls-1" d="M169,.39a11.62,11.62,0,0,0-4.76,1,.73.73,0,0,0,0-.13l-5.88,3.13L129.64,19.64a12.58,12.58,0,0,0,3,24.8A12.33,12.33,0,0,0,138,43.22a12.91,12.91,0,0,0,2.16-1.28l18.2-9.66v95a24.83,24.83,0,0,1-6.87,15.32,25.21,25.21,0,0,1-8,5.54l-.48.21L84.25,189.69a11.55,11.55,0,0,0-4.38,13.16c1.55,4.87,5.7,8.14,10.36,8.14a10.86,10.86,0,0,0,6.25-2.07l61.84-43.54,5.39-3.8a11.71,11.71,0,0,0,2.37-2.25,47.36,47.36,0,0,0,14.68-34.12V69.6c0-1-.06-2.07-.13-3.09a5.46,5.46,0,0,0,.15-.83V12.17A11.78,11.78,0,0,0,169,.39Z"/><path id="_路径_3" data-name="&lt;路径&gt;" class="cls-2" d="M72.72,123.35a7.89,7.89,0,0,1-7-4.3L48.06,84.6a7.89,7.89,0,1,1,14-7.18l17.63,34.46a7.89,7.89,0,0,1-7,11.48Z"/><path id="_路径_4" data-name="&lt;路径&gt;" class="cls-2" d="M109,123.35a7.89,7.89,0,0,1-7-4.3L84.33,84.6a7.89,7.89,0,1,1,14-7.18L116,111.88a7.89,7.89,0,0,1-7,11.48Z"/><path id="_路径_5" data-name="&lt;路径&gt;" class="cls-3" d="M72.71,123.35a7.89,7.89,0,0,1-6.95-11.61L84.19,77.29A7.89,7.89,0,1,1,98.1,84.73L79.67,119.19A7.88,7.88,0,0,1,72.71,123.35Z"/><path id="_路径_6" data-name="&lt;路径&gt;" class="cls-3" d="M109,123.35A7.89,7.89,0,0,1,102,111.75l18.43-34.46a7.89,7.89,0,1,1,13.91,7.44l-18.43,34.46A7.88,7.88,0,0,1,109,123.35Z"/><g id="_编组_2" data-name="&lt;编组&gt;"><path id="_复合路径_" data-name="&lt;复合路径&gt;" class="cls-1" d="M380.64,116.74v-9.62c43.43-5.38,62.71-19.46,62.57-42.4V43.55H465.8V64.72c.27,22.95,19.13,37,62.57,42.4v9.62c-34.84-4-59.35-14.7-73.54-27.16C441.93,102,417.19,112.7,380.64,116.74Zm2.58-103.84V6.13h144.5v6.78H467.31a99.91,99.91,0,0,1-5.16,12.67h51.39V87.67H496.59V32.34h-84V87.67H395.48V25.58h46.34c1.71-4,2.26-7.62,3.55-12.67Z"/></g><g id="_编组_3" data-name="&lt;编组&gt;"><rect id="_路径_7" data-name="&lt;路径&gt;" class="cls-1" x="710.86" y="6.12" width="17.06" height="12.02"/><polygon id="_路径_8" data-name="&lt;路径&gt;" class="cls-1" points="805.03 116.68 805.03 95.68 848.99 95.68 848.99 88.91 805.03 88.91 805.03 72.27 842.99 72.27 842.99 65.4 805.03 65.4 805.03 54.71 787.86 54.71 787.86 65.4 750.79 65.4 750.79 72.27 787.86 72.27 787.86 88.91 746.79 88.91 746.79 95.68 787.86 95.68 787.86 116.68 805.03 116.68"/><path id="_路径_9" data-name="&lt;路径&gt;" class="cls-1" d="M796.3,44.59l.69.23c12.28,4.23,29.77,7.55,52,9.89V48.34c-17.73-2.71-29.62-5.34-36.32-8.09l-2.93-1.2,2.85-1.29a83.28,83.28,0,0,0,29.73-22.68V6.21h-94.2v6.91H825.6l-3.25,3.26a89.24,89.24,0,0,1-25.15,17.71l-1,.48-1-.52a132.49,132.49,0,0,1-19.72-12.52H756.94A115.61,115.61,0,0,0,780.6,37.8l3,1.54-3.38,1c-9,2.65-21.86,5.5-38.1,8.47v5.9a356.4,356.4,0,0,0,53.46-9.9Z"/><path id="_路径_10" data-name="&lt;路径&gt;" class="cls-1" d="M710.86,111.43c8.07-2.44,22.35-6.92,28.56-9.61V92.73c-1.27.38-8.25,2.56-9.37,2.78l-2.13.43V38.38H698.16V45.2h12.7Z"/></g><g id="_编组_4" data-name="&lt;编组&gt;"><path id="_复合路径_2" data-name="&lt;复合路径&gt;" class="cls-1" d="M543.39,12.88V6l71-.12.09,6.87L588,12.88V34.43H613.7v6.83h-11c2.58,6.32,8.68,12.68,16.85,16.67V66.4a31.21,31.21,0,0,1-6.45-2V102c.42,10.27-6,14.76-19.35,14.43L546,116.16V64.41a47.77,47.77,0,0,1-6.45,2V57.92c8.6-4.32,14.69-10.68,16.85-16.67H542.1V34.43h29V12.88Zm7.74,17.61a29.29,29.29,0,0,1-5.81-12h14.84a31,31,0,0,0,5.16,12Zm19.92,30.43V41.25h-1.94c-4.3,10-11.53,18.5-23.15,23.15h67.09c-12.48-4.65-19.71-13.17-23.15-23.15H588V60.91ZM563,71.22V86.76h8V71.22Zm0,38.37h8v-16h-8Zm33.08-38.37h-8V86.76h8Zm-4.93,38.37c4.94-.14,4.93-2.31,4.93-8.6V93.56h-8v16Zm2.58-79.1a31.15,31.15,0,0,0,5.16-12H613.7a29.29,29.29,0,0,1-5.81,12Z"/><polygon id="_路径_11" data-name="&lt;路径&gt;" class="cls-1" points="631.19 47.62 618.46 40.88 618.46 32.85 631.19 39.59 631.19 47.62"/><polygon id="_路径_12" data-name="&lt;路径&gt;" class="cls-1" points="666.34 47.62 653.61 40.88 653.61 32.85 666.34 39.59 666.34 47.62"/><path id="_路径_13" data-name="&lt;路径&gt;" class="cls-1" d="M649.18,103V6.13h-31v6.81h14.2V67.88L618.46,80V92.86l14-12.13v20.82c0,3.86.15,8.18-5.17,8.33h-5.16v6.56h9Q649.82,116.92,649.18,103Z"/><path id="_路径_14" data-name="&lt;路径&gt;" class="cls-1" d="M652.41,6.13v6.81h15.17V68.29L654.09,80V92.86l13.49-11.72v20.41c0,3.64.14,8.26-4.21,8.33h-5.81v6.56h9.68q17.42,0,17.42-12.9V6.13Z"/></g><g id="_编组_5" data-name="&lt;编组&gt;"><path id="_路径_15" data-name="&lt;路径&gt;" class="cls-1" d="M300.22,92c19.61-14.51,33-31.42,39.23-63.68H322.27c-3.68,31.3-6.16,38.33-22.05,52.78Z"/><path id="_路径_16" data-name="&lt;路径&gt;" class="cls-1" d="M231.92,116.88V6.85H366.09V99.14q.63,18.22-23.87,17.74h-11v-6.73h5.81c7.36,0,12.17-5,12.08-10.51v-86h-100V116.88Z"/><polygon id="_路径_17" data-name="&lt;路径&gt;" class="cls-1" points="310.87 36.22 336.87 76.2 336.87 89.73 298.94 36.22 310.87 36.22"/><path id="_路径_18" data-name="&lt;路径&gt;" class="cls-1" d="M259.53,92c19.61-14.51,33-31.42,39.23-63.68H281.59c-3.68,31.3-6.16,38.33-22.05,52.78Z"/><polygon id="_路径_19" data-name="&lt;路径&gt;" class="cls-1" points="270.18 36.22 296.18 76.2 296.18 89.73 258.26 36.22 270.18 36.22"/></g><path id="_路径_20" data-name="&lt;路径&gt;" class="cls-1" d="M454.52,155.84a6.21,6.21,0,0,0,4.6-1.91,6.81,6.81,0,0,0,0-9.41,6.24,6.24,0,0,0-4.6-1.94h-96a7.07,7.07,0,0,0-4.6,1.52,4.66,4.66,0,0,0-1.9,3.73V185c0,.07,0,.09,0,.16a17.78,17.78,0,0,0,1.46,7.07,19.58,19.58,0,0,0,3.8,5.65,17.08,17.08,0,0,0,5.26,3.67,14.86,14.86,0,0,0,6,1.31h85.92a6.28,6.28,0,0,0,4.6-1.93,6.49,6.49,0,0,0,1.89-4.69,6.39,6.39,0,0,0-1.89-4.7,6.14,6.14,0,0,0-4.6-1.94H369.26a4.41,4.41,0,0,1-3-1,3.29,3.29,0,0,1-1.17-2.44v-6.79h86.48a6.22,6.22,0,0,0,4.61-1.91,6.84,6.84,0,0,0,0-9.41,6.24,6.24,0,0,0-4.61-1.94H365.06V155.84Z"/><path id="_路径_21" data-name="&lt;路径&gt;" class="cls-1" d="M577,155.84a6.14,6.14,0,0,0,4.6-1.91,6.77,6.77,0,0,0,0-9.41,6.17,6.17,0,0,0-4.6-1.94H481a7.09,7.09,0,0,0-4.6,1.52,4.6,4.6,0,0,0-1.87,3.73V185c0,.07,0,.09,0,.16a17.59,17.59,0,0,0,1.44,7.07,18.27,18.27,0,0,0,3.79,5.65,16.67,16.67,0,0,0,5.28,3.67,14.82,14.82,0,0,0,5.94,1.31H577a6.21,6.21,0,0,0,4.6-1.93,6.5,6.5,0,0,0,1.9-4.69,6.4,6.4,0,0,0-1.9-4.7,6.08,6.08,0,0,0-4.6-1.94H491.71a4.55,4.55,0,0,1-3-1,3.39,3.39,0,0,1-1.13-2.44v-6.79H574a6.12,6.12,0,0,0,4.58-1.91,6.76,6.76,0,0,0,0-9.41,6.14,6.14,0,0,0-4.58-1.94H487.54V155.84Z"/><path id="_路径_22" data-name="&lt;路径&gt;" class="cls-1" d="M685.92,164.84q3.25-2.1,6.49-4.48c2.17-1.64,4.43-3.37,6.78-5.21a12.39,12.39,0,0,0,2.56-2.55,5.49,5.49,0,0,0,1.09-3.37,6.55,6.55,0,0,0-1.9-4.71,6.23,6.23,0,0,0-4.61-1.94,7.29,7.29,0,0,0-4.61,1.94c-3.59,2.67-7.36,5.29-11.28,7.89a99.08,99.08,0,0,1-12.32,6.88,78.33,78.33,0,0,1-13.2,4.91,50.89,50.89,0,0,1-13.81,1.87H609.87V149.23a6.49,6.49,0,0,0-1.9-4.71,6.23,6.23,0,0,0-4.6-1.94,6.08,6.08,0,0,0-4.47,1.94,6.48,6.48,0,0,0-1.89,4.71v47a6.49,6.49,0,0,0,1.89,4.69,6.25,6.25,0,0,0,4.59,1.93,6.11,6.11,0,0,0,4.48-1.93,6.51,6.51,0,0,0,1.9-4.69V179.34H641.1a54.18,54.18,0,0,1,13.81,1.78A76.43,76.43,0,0,1,668.06,186a108.76,108.76,0,0,1,12.24,6.91q5.9,3.87,11.42,8a7.34,7.34,0,0,0,4.61,1.93,6.27,6.27,0,0,0,4.61-1.93,6.56,6.56,0,0,0,1.9-4.69,5.44,5.44,0,0,0-1.09-3.39,13.26,13.26,0,0,0-2.56-2.57q-3.53-2.77-6.78-5.18c-2.15-1.61-4.32-3.11-6.49-4.51s-4.4-2.7-6.71-4-4.74-2.58-7.38-3.87q3.95-1.93,7.38-3.88C681.52,167.54,683.76,166.24,685.92,164.84Z"/><path id="_路径_23" data-name="&lt;路径&gt;" class="cls-1" d="M722.86,142.58a6.22,6.22,0,0,0-4.61,1.94,6.47,6.47,0,0,0-1.88,4.71v47a6.48,6.48,0,0,0,1.88,4.69,6.48,6.48,0,0,0,9.22,0,6.53,6.53,0,0,0,1.87-4.69v-47a6.52,6.52,0,0,0-1.87-4.71A6.27,6.27,0,0,0,722.86,142.58Z"/><path id="_路径_24" data-name="&lt;路径&gt;" class="cls-1" d="M847.07,144.52a6.23,6.23,0,0,0-4.6-1.94H749.39a6.22,6.22,0,0,0-4.61,1.94,6.48,6.48,0,0,0-1.89,4.71,6.3,6.3,0,0,0,1.75,4.48,6.43,6.43,0,0,0,4.19,2.13h40.6v40.38a6.46,6.46,0,0,0,1.9,4.69,6.21,6.21,0,0,0,4.59,1.93,6.29,6.29,0,0,0,4.62-1.93,6.49,6.49,0,0,0,1.89-4.69V155.84h40a6.21,6.21,0,0,0,4.6-1.91,6.74,6.74,0,0,0,0-9.41Z"/><path id="_路径_25" data-name="&lt;路径&gt;" class="cls-1" d="M336.67,144.52a6.28,6.28,0,0,0-4.61-1.94,7.15,7.15,0,0,0-4.6,1.94q-8.81,7.88-14.7,12.3a61.73,61.73,0,0,1-10.48,6.63,26.58,26.58,0,0,1-8.65,2.71,79.72,79.72,0,0,1-9.34.48,72.94,72.94,0,0,1-9.46-.56,29.9,29.9,0,0,1-8.88-2.75,64.46,64.46,0,0,1-10.54-6.64q-5.9-4.42-14.55-12.16a15.26,15.26,0,0,0-2.18-1.4,5.43,5.43,0,0,0-2.42-.54,6.21,6.21,0,0,0-4.6,1.94,6.49,6.49,0,0,0-1.9,4.71,5.93,5.93,0,0,0,.76,2.89,7.84,7.84,0,0,0,1.81,2.34q8.67,7.76,15.31,12.79a86.39,86.39,0,0,0,12.44,8.09,42.34,42.34,0,0,0,11.58,4.22c1.82.36,4,.35,6,.56v11h0v4.75a6.48,6.48,0,0,0,1.88,4.69,6.49,6.49,0,0,0,9.22,0,6.53,6.53,0,0,0,1.87-4.69v-5.19h0V180.07a56.73,56.73,0,0,0,5.83-.58,50.75,50.75,0,0,0,11.64-4.21,82.85,82.85,0,0,0,12.64-8q6.72-5,15.25-12.79a8.17,8.17,0,0,0,1.81-2.34,6.1,6.1,0,0,0,.74-2.89A6.52,6.52,0,0,0,336.67,144.52Z"/></g></g></g></svg>