<svg xmlns="http://www.w3.org/2000/svg" viewBox="0 0 288.59 191.01"><defs><style>.cls-1{fill:#2e95f3;}</style></defs><title>资源 13</title><g id="图层_2" data-name="图层 2"><g id="图层_1-2" data-name="图层 1"><g id="_编组_" data-name="&lt;编组&gt;"><path id="_复合路径_" data-name="&lt;复合路径&gt;" class="cls-1" d="M229.22,109.73c-27.58,0-49.93,16.72-49.93,37.35,0,15.31,12.32,28.46,29.95,34.23a35,35,0,0,1-14.57,4.79,35.55,35.55,0,0,0,38.85-1.81c25.56-1.63,45.63-17.66,45.63-37.2C279.14,126.45,256.79,109.73,229.22,109.73Zm-26.09,46.54a7.44,7.44,0,1,1,7.44-7.44A7.44,7.44,0,0,1,203.13,156.27Zm26.09,0a7.44,7.44,0,1,1,7.44-7.44A7.44,7.44,0,0,1,229.22,156.27Zm24.74,0a7.44,7.44,0,1,1,7.44-7.44A7.44,7.44,0,0,1,254,156.27Z"/><path id="_路径_" data-name="&lt;路径&gt;" class="cls-1" d="M226,47.17c-7.29,0-12.33.62-18.83,2.91C199.86,20.93,171.53,0,140.1,0A67.2,67.2,0,0,0,79,39.13,66.45,66.45,0,0,0,0,104.38c0,36.7,29.75,67.88,66.46,67.88h116.2a30.12,30.12,0,0,1-10.25-22.06c0-.6,0-1.2.07-1.79H84.6c-28.16,0-51-20.14-51-48.29S53.75,54.55,81.91,54.55a50.88,50.88,0,0,1,9.65.93C99.72,37.75,120.38,24,141.16,24c24.11,0,47.35,30.41,53,52.77,5-1.76,13-5.16,18.58-5.9,21.1-2.83,42.94,6.9,42.23,33.39,0,1.16-.09,2.29-.16,3.39,13.22,3.74,21.79,15.16,28.51,25.15,1.67-5.64,5.28-16.87,5.28-23.05A62.54,62.54,0,0,0,226,47.17Z"/></g></g></g></svg>