<svg xmlns="http://www.w3.org/2000/svg" viewBox="0 0 15.98 14"><defs><style>.cls-1{fill:#ffb02d;}</style></defs><title>资源4</title><g id="图层_2" data-name="图层 2"><g id="图层_1-2" data-name="图层 1"><path id="形状_3" data-name="形状 3" class="cls-1" d="M13.47,4.42a1.19,1.19,0,0,1-.32-.82,1.39,1.39,0,0,1,1.41-1.32,1.33,1.33,0,0,1,.19,2.65h0l-2.14,5.43A41.09,41.09,0,0,0,8,10.05c-1.93,0-3.34.22-4.58.32L1.31,4.92A1.34,1.34,0,0,1,0,3.6a1.42,1.42,0,0,1,2.84,0,1.35,1.35,0,0,1-.34.8L4.55,6.57,5.4,2.71a1.28,1.28,0,0,1-1.11-1.3A1.46,1.46,0,0,1,5.79,0h0A1.48,1.48,0,0,1,7.31,1.41a1.26,1.26,0,0,1-.7,1.13L8,6.36h0L9.42,2.54a1.4,1.4,0,0,1-.6-1.13,1.51,1.51,0,0,1,3,0,1.32,1.32,0,0,1-1,1.3l.69,3.86ZM2.22,14c0-.83,0-2.5,1.16-2.6s2.64-.32,4.57-.32a40.81,40.81,0,0,1,4.59.32c1.27.15,1.25,1.56,1.25,2.6Z"/></g></g></svg>